<svg id="Camada_1" xmlns="http://www.w3.org/2000/svg" viewBox="0 0 198.4 73.7"><style type="text/css">
	.st0{fill:#ECEDEF;}
</style><path class="st0" d="M13.6 8.8c0.9-0.4 1.8-0.7 2.7-1 0.8-0.2 1.5-0.5 2.3-0.7L19 5.4l0.9-4.2L20 0.7l0.5-0.1c1.2-0.2 2.4-0.4 3.6-0.5C25.3 0.1 26.5 0 27.8 0c1.2 0 2.4 0.1 3.6 0.2 1.2 0.1 2.4 0.3 3.6 0.5l0.5 0.1 0.1 0.5 0.9 4.2 0.4 1.8c1.9 0.5 3.7 1.1 5.4 1.8 1.8 0.7 3.5 1.6 5.1 2.6l1.6-1 3.6-2.4 0.4-0.3 0.4 0.3c2 1.4 3.8 3 5.6 4.7 1.7 1.7 3.3 3.6 4.7 5.6l0.3 0.4 -0.3 0.4 -2.4 3.6 -1 1.6c1 1.6 1.8 3.3 2.6 5.1 0.7 1.7 1.3 3.5 1.8 5.4l1.8 0.4 4.2 0.9 0.5 0.1 0.1 0.5c0.2 1.2 0.4 2.4 0.5 3.6 0.1 1.2 0.2 2.4 0.2 3.6 0 1.2-0.1 2.4-0.2 3.6 -0.1 1-0.2 1.9-0.3 2.9h-1.4c0.2-1 0.3-2 0.4-3 0.1-1.2 0.1-2.3 0.1-3.5 0-1.2 0-2.4-0.1-3.5 -0.1-1-0.2-2-0.4-3l-3.7-0.8 -2.3-0.5 -0.4-0.1 -0.1-0.4c-0.5-1.9-1.1-3.8-1.8-5.6 -0.8-1.8-1.7-3.6-2.7-5.3l-0.2-0.4 0.2-0.4 1.3-1.9 2.1-3.2c-1.3-1.8-2.7-3.4-4.3-5 -1.6-1.6-3.2-3-5-4.3l-3.2 2.1L47.8 13l-0.4 0.2L47 13c-1.7-1-3.4-1.9-5.3-2.7 -1.8-0.7-3.7-1.4-5.6-1.8l-0.4-0.1 -0.1-0.4 -0.5-2.3 -0.8-3.7c-1-0.2-2-0.3-3-0.4 -1.2-0.1-2.3-0.1-3.5-0.1 -1.2 0-2.4 0-3.5 0.1 -1 0.1-2 0.2-3 0.4l-0.8 3.7L20 7.9l-0.1 0.4 -0.4 0.1c-0.9 0.2-1.8 0.5-2.7 0.7 -0.9 0.3-1.8 0.6-2.6 0.9L13.6 8.8 13.6 8.8zM52.4 50.6c0.3-1.1 0.5-2.1 0.6-3.2 0.1-1.1 0.2-2.2 0.2-3.3 0-7-2.9-13.4-7.5-18 -4.6-4.6-11-7.5-18-7.5 -7 0-13.4 2.9-18 7.5 -4.6 4.6-7.5 11-7.5 18 0 7 2.9 13.4 7.5 18 4.6 4.6 11 7.5 18 7.5v2.3c-7.7 0-14.6-3.1-19.6-8.1 -5-5-8.1-12-8.1-19.6 0-7.7 3.1-14.6 8.1-19.6 5-5 12-8.1 19.6-8.1 7.7 0 14.6 3.1 19.6 8.1 5 5 8.1 12 8.1 19.6 0 1.2-0.1 2.4-0.2 3.6 -0.1 1-0.3 2-0.5 2.9H52.4L52.4 50.6zM57.9 50.6c0.2-0.8 0.3-1.7 0.4-2.5 0.2-1.3 0.3-2.7 0.3-4 0-8.5-3.5-16.2-9-21.8 -5.6-5.6-13.3-9-21.8-9 -1.4 0-2.7 0.1-4 0.3 -1.3 0.2-2.6 0.4-4 0.8l-0.4-1.4c1.4-0.4 2.7-0.6 4.1-0.8 1.4-0.2 2.8-0.3 4.2-0.3 8.9 0 17 3.6 22.8 9.5C56.4 27 60 35.1 60 44c0 1.4-0.1 2.8-0.3 4.2 -0.1 0.8-0.2 1.6-0.4 2.3H57.9L57.9 50.6zM33.4 53.7c2.7-1.5 4.5-4 5.2-6.8 0.7-2.8 0.4-5.8-1.1-8.5l0 0c-1.5-2.7-4-4.5-6.8-5.2 -2.8-0.7-5.8-0.4-8.5 1.1l0 0c-2.7 1.5-4.5 4-5.2 6.8 -0.7 2.8-0.4 5.8 1.1 8.5h0c1.5 2.7 4 4.5 6.8 5.2C27.6 55.6 30.7 55.3 33.4 53.7L33.4 53.7 33.4 53.7zM40 47.3c-0.8 3.1-2.9 5.9-5.9 7.7h0c-3 1.7-6.5 2.1-9.6 1.3 -3.1-0.8-5.9-2.9-7.7-5.9v0c-1.7-3-2.1-6.5-1.3-9.6 0.8-3.1 2.9-5.9 5.9-7.7h0c3-1.7 6.5-2.1 9.6-1.3 3.1 0.8 5.9 2.9 7.7 5.9v0C40.4 40.7 40.8 44.2 40 47.3L40 47.3zM13.7 35.9c-1.5 2.5-2.2 5.3-2.2 8.1 0 2.8 0.7 5.6 2.2 8.1v0c1.4 2.5 3.5 4.5 5.9 5.9 2.4 1.4 5.2 2.2 8.1 2.2v1.4c-3.2 0-6.2-0.8-8.8-2.4 -2.6-1.5-4.9-3.7-6.5-6.5l0 0c-1.6-2.7-2.4-5.8-2.4-8.8 0-3.1 0.8-6.1 2.4-8.8L13.7 35.9 13.7 35.9zM42.6 50.6c0.9-2.1 1.4-4.3 1.4-6.5 0-2.8-0.7-5.6-2.2-8.1v0c-1.4-2.5-3.5-4.5-5.9-5.9 -2.4-1.4-5.2-2.2-8.1-2.2v-1.4c3.2 0 6.2 0.8 8.8 2.4 2.6 1.5 4.9 3.7 6.5 6.5l0 0c1.6 2.7 2.4 5.8 2.4 8.8 0 2.2-0.4 4.4-1.3 6.5H42.6L42.6 50.6zM17.3 26c-3.2 1.9-5.8 4.5-7.6 7.6C7.9 36.7 6.9 40.3 6.9 44c0 4.7 1.6 9.2 4.3 12.7 2.7 3.6 6.6 6.2 11.2 7.5L22 65.6c-4.9-1.3-9-4.2-11.9-8C7.2 53.8 5.5 49.1 5.5 44c0-4 1.1-7.8 3-11.1 1.9-3.3 4.7-6.2 8.2-8.2L17.3 26 17.3 26zM48.6 44c0-3.7-1-7.3-2.8-10.4 -1.8-3.1-4.4-5.8-7.6-7.6l0.7-1.2c3.4 2 6.2 4.8 8.2 8.2 1.9 3.3 3 7.2 3 11.1H48.6L48.6 44z"/><path class="st0" d="M60.7 61.8c0-1.1 0-2-0.1-2.8 -0.1-0.8-0.3-1.4-0.6-1.9 -0.3-0.5-0.7-0.9-1.2-1.2 -0.5-0.3-1.2-0.5-2.1-0.6 -0.9-0.1-2-0.2-3.2-0.3 -1.3 0-2.8-0.1-4.6-0.1 -1.7 0-3.1 0-4.3 0.1 -1.2 0-2.3 0.1-3.1 0.3 -0.9 0.1-1.6 0.3-2.1 0.6 -0.6 0.3-1 0.6-1.3 1.1 -0.3 0.5-0.6 1-0.7 1.7 -0.1 0.7-0.2 1.5-0.3 2.4 0 0.9-0.1 2-0.1 3.3 0 1.3 0 2.4 0.1 3.3 0 0.9 0.1 1.8 0.3 2.4 0.1 0.7 0.4 1.2 0.7 1.7 0.3 0.4 0.8 0.8 1.3 1.1 0.6 0.3 1.3 0.5 2.1 0.6 0.9 0.1 1.9 0.2 3.1 0.3 1.2 0 2.7 0.1 4.3 0.1 1.7 0 3.2 0 4.4 0 1.2 0 2.3-0.1 3.2-0.2 0.9-0.1 1.6-0.3 2.1-0.6 0.6-0.3 1-0.7 1.3-1.2 0.3-0.5 0.5-1.1 0.7-1.9 0.1-0.8 0.2-1.7 0.2-2.8 0-1.1 0-2.4 0-4H48.1v4.1h7c0 0.3 0 0.6 0 0.8 0 0.2-0.1 0.4-0.2 0.5 -0.1 0.1-0.3 0.2-0.6 0.3 -0.3 0.1-0.6 0.1-1.1 0.2 -0.5 0-1 0.1-1.8 0.1 -0.7 0-1.6 0-2.6 0 -1 0-1.9 0-2.6 0 -0.7 0-1.3-0.1-1.8-0.2s-0.8-0.2-1.1-0.4c-0.3-0.2-0.5-0.5-0.6-0.8 -0.1-0.3-0.2-0.8-0.2-1.3 0-0.5 0-1.2 0-1.9 0-0.8 0-1.4 0-2 0-0.5 0.1-1 0.2-1.3 0.1-0.3 0.3-0.6 0.6-0.8 0.3-0.2 0.6-0.3 1.1-0.4 0.5-0.1 1.1-0.1 1.8-0.2 0.7 0 1.6 0 2.6 0 1 0 1.9 0 2.6 0 0.7 0 1.3 0 1.8 0.1 0.5 0 0.8 0.1 1.1 0.2 0.3 0.1 0.4 0.2 0.6 0.4 0.1 0.2 0.2 0.4 0.2 0.6 0 0.2 0 0.5 0 0.9H60.7L60.7 61.8zM63.7 73.4h19.7V69H69.4v-2.5h13.4v-4.4H69.4v-2.5h14.1v-4.4H63.7V73.4L63.7 73.4zM105.1 55.1h-9.5l-10.1 7.6v7.2h14v3.6h5.6v-3.6h3.3v-4.1h-3.3V55.1L105.1 55.1zM90.5 65.8v-0.5l7.7-5.4h1.4v5.9H90.5L90.5 65.8zM110.6 55.1v18.3h5.6v-5.1h8.9c0.4 0 0.6 0.1 0.9 0.2 0.2 0.1 0.4 0.3 0.6 0.4 0.1 0.2 0.2 0.4 0.3 0.6 0.1 0.2 0.1 0.4 0.1 0.6v3.3h5.6v-4.1c0-0.6 0-1.1-0.1-1.5 -0.1-0.4-0.2-0.7-0.4-1 -0.2-0.3-0.5-0.5-0.8-0.7 -0.3-0.2-0.7-0.4-1.2-0.6 0.5-0.2 0.8-0.4 1.2-0.7 0.3-0.3 0.6-0.6 0.8-1 0.2-0.4 0.4-0.9 0.4-1.5 0.1-0.6 0.1-1.2 0.1-2 0-1-0.1-1.9-0.3-2.6 -0.2-0.7-0.6-1.2-1-1.6 -0.5-0.4-1-0.7-1.8-0.9 -0.7-0.2-1.5-0.3-2.5-0.3H110.6L110.6 55.1zM116.3 59.9h9c0.4 0 0.7 0.1 1 0.2 0.3 0.1 0.4 0.3 0.6 0.6 0.1 0.3 0.2 0.6 0.2 1.1 0 0.5-0.1 0.8-0.2 1.1 -0.1 0.3-0.3 0.5-0.6 0.6 -0.3 0.1-0.6 0.2-1 0.2h-9V59.9L116.3 59.9zM138.4 67h11.6c1 0 1.9-0.2 2.7-0.6 0.8-0.4 1.3-1 1.8-1.8 0.4-0.8 0.6-1.9 0.6-3.1 0-1.3-0.2-2.4-0.6-3.2 -0.4-0.8-1-1.4-1.7-1.8 -0.7-0.4-1.6-0.6-2.6-0.6h-14.3v17.5h2.6V67L138.4 67zM138.4 58.3h11.6c0.5 0 0.9 0.1 1.3 0.3 0.4 0.2 0.7 0.6 0.9 1 0.2 0.5 0.3 1.1 0.3 1.8 0 0.8-0.1 1.4-0.3 1.9 -0.2 0.5-0.5 0.8-0.9 1 -0.4 0.2-0.8 0.3-1.3 0.3h-11.6V58.3L138.4 58.3zM159.4 64.7c0-1.1 0-2 0.1-2.7 0-0.7 0.1-1.4 0.3-1.9 0.1-0.5 0.4-0.9 0.7-1.1 0.3-0.3 0.7-0.5 1.3-0.6 0.5-0.1 1.2-0.2 2-0.2 0.8 0 1.8-0.1 3 0 1.1 0 2.1 0 2.9 0.1 0.8 0 1.5 0.1 2 0.3 0.5 0.1 1 0.4 1.3 0.6 0.3 0.3 0.5 0.7 0.7 1.2 0.1 0.5 0.2 1.1 0.3 1.8 0 0.7 0.1 1.6 0.1 2.6 0 1 0 1.8-0.1 2.5 0 0.7-0.1 1.3-0.3 1.8 -0.2 0.5-0.4 0.9-0.7 1.2 -0.3 0.3-0.7 0.5-1.3 0.7 -0.5 0.2-1.2 0.3-2 0.3 -0.8 0.1-1.8 0.1-2.9 0.1 -1.2 0-2.2 0-3-0.1 -0.8-0.1-1.5-0.2-2-0.4 -0.5-0.2-1-0.4-1.3-0.8 -0.3-0.3-0.5-0.7-0.7-1.2 -0.1-0.5-0.2-1.1-0.3-1.8C159.4 66.4 159.4 65.6 159.4 64.7L159.4 64.7zM156.8 64.7c0 1.3 0 2.5 0.1 3.5 0.1 1 0.3 1.8 0.5 2.4 0.2 0.7 0.6 1.2 1.1 1.6 0.5 0.4 1.1 0.7 1.8 0.9 0.7 0.2 1.6 0.4 2.7 0.4 1.1 0.1 2.3 0.1 3.7 0.1 1.4 0 2.7 0 3.7-0.1 1.1-0.1 1.9-0.2 2.7-0.4 0.7-0.2 1.3-0.5 1.8-0.9 0.5-0.4 0.8-0.9 1-1.6 0.2-0.7 0.4-1.5 0.5-2.5 0.1-1 0.1-2.1 0.1-3.5 0-1.3 0-2.5-0.1-3.4 -0.1-1-0.2-1.8-0.4-2.4 -0.2-0.7-0.6-1.2-1-1.6 -0.4-0.4-1-0.7-1.7-1 -0.7-0.2-1.6-0.4-2.7-0.5 -1.1-0.1-2.4-0.1-3.9-0.1 -1.5 0-2.8 0-3.9 0.1 -1.1 0.1-2 0.2-2.7 0.5 -0.7 0.2-1.3 0.5-1.8 1 -0.4 0.4-0.8 1-1 1.6 -0.2 0.7-0.4 1.5-0.4 2.4C156.8 62.2 156.8 63.4 156.8 64.7L156.8 64.7zM181.1 55.9h-2.6v17.5h16.1v-2.4h-13.4V55.9L181.1 55.9zM198.4 55.9h-2.6v17.5h2.6V55.9L198.4 55.9z"/></svg>
