<svg xmlns="http://www.w3.org/2000/svg" data-name="Layer 1" viewBox="0 0 175.73 104.39">
  <style>.cls-1,.cls-2{fill:#F7E901;}</style>
  <g data-name="Rato TR">
    <path d="M104.57 93.8a3.77 3.77 0 0 0 1.4-.48 2.84 2.84 0 0 0 1.21-2.69v-7.77h9.51v2.61h-7.29l6.7 8.53h5.69l-4.49-5.53a5.49 5.49 0 0 0 3-.84 2.45 2.45 0 0 0 1.05-2.1v-2.67a2.46 2.46 0 0 0-1.15-2.19 5.6 5.6 0 0 0-3.11-.76H102.5v14h.5a11.28 11.28 0 0 0 1.57-.11zm40.2.2h1a2.94 2.94 0 0 0 2-.51 2.25 2.25 0 0 0 .53-1.68v-6.17h3.3a3.49 3.49 0 0 0 .94-.18 1.86 1.86 0 0 0 .77-.51 1.47 1.47 0 0 0 .32-1v-.48h-11.81a3.42 3.42 0 0 0-1.82.41 1.64 1.64 0 0 0-.65 1.5v.31h5.41zm25.47-.17a2.87 2.87 0 0 0-.08-.66 1.4 1.4 0 0 0-.39-.66 2.26 2.26 0 0 0-.92-.5 5.61 5.61 0 0 0-1.66-.2h-6.34q1-.59 2.5-1.54l3.31-2.08v.06q.73-.45 1.38-.9a10.07 10.07 0 0 0 1.14-.91 3.88 3.88 0 0 0 .76-1 2.19 2.19 0 0 0 .27-1.05v-1h-14.87v.34a2.27 2.27 0 0 0 .13.76 1.32 1.32 0 0 0 .45.62 2.21 2.21 0 0 0 .89.38 6.52 6.52 0 0 0 1.4.13h6.43l-.73.43-.92.58-1.26.77q-.73.43-1.68 1.05l-1.56 1a17.14 17.14 0 0 0-1.49 1.12 8.67 8.67 0 0 0-1.15 1.11 1.65 1.65 0 0 0-.47 1.05V94h14.9z" class="cls-1" data-name="&lt;Path&gt;"/>
    <path d="M125 93.81a3.71 3.71 0 0 0 1.07-.44 2.11 2.11 0 0 0 .71-.73 2.4 2.4 0 0 0 .24-1.18v-1.65h7.1V94h3.56V83.42h-11a5.17 5.17 0 0 0-1.22.14 3.47 3.47 0 0 0-1 .42 2 2 0 0 0-1 1.77V94h.22a5.36 5.36 0 0 0 1.32-.19zm2-8.18h7.1v2H127z" class="cls-1" data-name="&lt;Compound Path&gt;"/>
    <path d="M87.62 93.36a3.38 3.38 0 0 0 1 .45 4.72 4.72 0 0 0 1.22.15h7.77a6.05 6.05 0 0 0 1.26-.13 3.23 3.23 0 0 0 1-.39 1.93 1.93 0 0 0 .67-.67 1.88 1.88 0 0 0 .24-1H90.21v-2h6.7V87.6h-6.7v-2h10.6a1.85 1.85 0 0 0-.86-1.6 4.18 4.18 0 0 0-2.33-.57h-7.8a4.23 4.23 0 0 0-1.19.17 3.92 3.92 0 0 0-1 .45 2.2 2.2 0 0 0-.69.69 1.65 1.65 0 0 0-.25.88v6.17a1.62 1.62 0 0 0 .25.9 2.4 2.4 0 0 0 .68.67zM12.1 94h1.37a3.91 3.91 0 0 0 2.65-.67 3 3 0 0 0 .72-2.33v-8.14h4.4a5.09 5.09 0 0 0 1.25-.24 2.27 2.27 0 0 0 1-.67 2 2 0 0 0 .42-1.37v-.62H8.17a4.6 4.6 0 0 0-2.43.53 2.19 2.19 0 0 0-.86 2v.39h7.22z" class="cls-1" data-name="&lt;Path&gt;"/>
    <path d="M81.8 94a5.22 5.22 0 0 0 1.2-.17 3.75 3.75 0 0 0 1-.41 1.92 1.92 0 0 0 .69-.67 1.89 1.89 0 0 0 .24-1v-6.11a1.86 1.86 0 0 0-.79-1.64 4.16 4.16 0 0 0-2.34-.57H70.86V94H81.8zm-7.35-8.33h7.07v6.17h-7.07z" class="cls-1" data-name="&lt;Compound Path&gt;"/>
    <path d="M29.12 89.81h7.1V94h3.53V83.42h-3.5v4.21h-7.13v-4.21h-.36a4.35 4.35 0 0 0-1.22.17 3.66 3.66 0 0 0-1 .45 2.32 2.32 0 0 0-.67.67 1.58 1.58 0 0 0-.25.87V94h3.51zm13.26 3.55a3.34 3.34 0 0 0 1 .45 4.84 4.84 0 0 0 1.25.15h7a4.74 4.74 0 0 0 1.22-.15 3.17 3.17 0 0 0 1-.45 2.64 2.64 0 0 0 .69-.69 1.56 1.56 0 0 0 .27-.9v-8.35h-3.55v8.39H45v-6.57a1.44 1.44 0 0 0-.88-1.42 5.42 5.42 0 0 0-2.26-.41h-.39v8.36a1.62 1.62 0 0 0 .25.9 2.42 2.42 0 0 0 .66.69zM60 88l1.4 1.32 3.76 3.53a3.49 3.49 0 0 0 .86.59 4.62 4.62 0 0 0 .93.34 5.26 5.26 0 0 0 .87.14h1.39v-10.5h-.31a4.72 4.72 0 0 0-2.33.51 1.73 1.73 0 0 0-.9 1.63v3.79q-.28-.22-.62-.55l-.55-.51-.24-.21-3.73-3.53a2.88 2.88 0 0 0-.87-.6 7 7 0 0 0-.92-.34 4.31 4.31 0 0 0-.87-.15h-1.43v10.45H60zm110.84 9.2L98.1 98.29l14.64-2.53-101.52 1.49 79.06 1.08-16.71 3.16 97.27-4.29z" class="cls-1" data-name="&lt;Path&gt;"/>
    <g data-name="&lt;Group&gt;">
      <path d="M37.87 70l31.07-19.79a11.07 11.07 0 0 1-.8-1.86zm99.46-67.1l-17.19 12.3c.06.25.15.69.24 1.29zM92.85 34.74l27.29-19.53-.06-.24a52.47 52.47 0 0 1-1.49-9.1.45.45 0 0 0 0-.13c-.27-2.08-3.32-1.15-3.32-1.15-10.59 3.58-14.58 14.77-14.58 14.77-3.44-5.06-12.52-5.42-12.52-5.42s-7.93 0-12.78 5.32c0 0-4-11.19-14.59-14.77 0 0-2.94-.91-3.31 1.06v.22a3.65 3.65 0 0 0 0 .49 12.88 12.88 0 0 1-.15 2.42A6.25 6.25 0 0 1 56.4 11a.41.41 0 0 0 .14.67s.74.26.33.72c0 0-.63.53-.08.93 0 0 .51.39-.16.64 0 0-.72.25 0 .73 0 0 .67.4 0 .72 0 0-.91.16-1 .78l-.51 4.05s-.08.57.38.71c0 0 1.76 1.41 1.93 1.61 0 0-2.18-1-2.49-.58a12.16 12.16 0 0 0-.25 5.74 2.49 2.49 0 0 0 1.86 2.12L59 30a4 4 0 0 1-2.42 1 1 1 0 0 0 1 .85l2.08-.59-1.51 1.64a9.41 9.41 0 0 0 3.93 2.86s3.33 1.46 4.85 1.11a23.13 23.13 0 0 0 .85 6.45 9.69 9.69 0 0 0 .36 5L100 25.59z" class="cls-2" data-name="&lt;Path&gt;"/>
      <path d="M80.12 48.83L88 38.07 68.94 50.21c1.28 2.41 3.74 5.06 8.37 7.26 0 0 1.28 5.85 5.22 7a7.94 7.94 0 0 0 3.87 2.43l.36 1.74h3.14l.38-1.8a6.5 6.5 0 0 0 3.24-2.24c4.17-.69 5.2-7 5.2-7 11.81-5.63 9.53-14.15 9.53-14.15a23.79 23.79 0 0 0 .85-6.62c1.25.09 2.16.07 2.16.07 8.31-1.7 7.37-6.68 7.37-6.68.28-2.87-3-2.72-3-2.72 2.81-.78 3.61 0 3.61 0 2-3.84 1.59-8.59 1.18-11z" class="cls-2" data-name="&lt;Path&gt;"/>
    </g>
  </g>
</svg>
