<svg xmlns="http://www.w3.org/2000/svg" viewBox="0 0 291.3 53"><style type="text/css">
	.st0{fill:#EEE336;}
	.st1{fill-rule:evenodd;clip-rule:evenodd;fill:#EDE436;}
</style><path class="st0" d="M0 53l24.6-15.6c-0.3-0.5-0.5-1-0.6-1.5L0 53z"/><path class="st0" d="M78.6 0L65 9.7c0 0.2 0.1 0.5 0.2 1L78.6 0z"/><path class="st0" d="M43.5 25.2L65 9.7c0-0.1 0-0.2 0-0.2 -0.9-2.8-1.2-7.2-1.2-7.2 0 0 0-0.1 0-0.1 -0.2-1.6-2.6-0.9-2.6-0.9C52.8 4.2 49.7 13 49.7 13c-2.7-4-9.9-4.3-9.9-4.3s-6.3 0-10.1 4.2c0 0-3.2-8.8-11.5-11.7 0 0-2.3-0.7-2.6 0.8 0 0 0 0 0 0 0 0 0 0.1 0 0.2 0 0.1 0 0.2 0 0.4 0 0.6 0 1.5-0.1 1.9 0 0-0.1 1-0.7 1.8 0 0-0.3 0.3 0.1 0.5 0 0 0.6 0.2 0.3 0.6 0 0-0.5 0.4-0.1 0.7 0 0 0.4 0.3-0.1 0.5 0 0-0.6 0.2 0 0.6 0 0 0.5 0.3 0 0.6 0 0-0.7 0.1-0.8 0.6l-0.4 3.2c0 0-0.1 0.4 0.3 0.6 0 0 1.4 1.1 1.5 1.3 0 0-1.7-0.8-2-0.5 -0.2 0.3-0.6 3.3-0.2 4.5 0 0 0.1 1.3 1.5 1.7l1.9 0.1c0 0-0.6 0.6-1.9 0.8 0 0 0.1 0.7 0.8 0.7l1.6-0.5L16 23.7c0 0 1.2 1.5 3.1 2.3 0 0 2.6 1.2 3.8 0.9l0 0c0 1.6 0.2 3.3 0.7 5.1 0 0-0.5 1.7 0.3 4l25.2-18L43.5 25.2z"/><path class="st0" d="M33.4 36.3l6.2-8.5 -15.1 9.6c1 1.9 3 4 6.6 5.7 0 0 1 4.6 4.1 5.5 1 1.1 2.2 1.7 3.1 1.9l0.3 1.4h1.2 1.2l0.3-1.4c1.2-0.3 2-1 2.6-1.8 3.3-0.5 4.1-5.5 4.1-5.5 9.3-4.4 7.5-11.2 7.5-11.2 0.5-1.8 0.7-3.6 0.7-5.2 1 0.1 1.7 0.1 1.7 0.1 6.6-1.3 5.8-5.3 5.8-5.3 0.2-2.3-2.4-2.1-2.4-2.1 2.2-0.6 2.9 0 2.9 0 1.6-3 1.3-6.8 0.9-8.7L33.4 36.3z"/><path class="st1" d="M204.3 34.3c0.7-0.1 1.3-0.3 1.8-0.6 1.1-0.6 1.6-1.8 1.6-3.5V19.9h12.5v3.4h-9.6l8.8 11.2h7.5l-5.9-7.3c1.7-0.1 3-0.4 3.9-1.1 0.9-0.7 1.4-1.6 1.4-2.8v-3.5c0-1.3-0.5-2.2-1.5-2.9 -1-0.7-2.4-1-4.1-1h-19.1v18.4h0.6C202.9 34.4 203.6 34.4 204.3 34.3z"/><path class="st1" d="M257.1 34.5h1.4c1.3 0 2.1-0.2 2.6-0.7 0.5-0.4 0.7-1.2 0.7-2.2v-8.1h3.2c0.3 0 0.7 0 1.1 0 0.4 0 0.8-0.1 1.2-0.2 0.4-0.1 0.7-0.4 1-0.7 0.3-0.3 0.4-0.8 0.4-1.3v-0.6h-15.5c-1 0-1.8 0.2-2.4 0.5 -0.6 0.4-0.8 1-0.8 2v0.4h7.1V34.5z"/><path class="st1" d="M290.5 34.3c0-0.3 0-0.6-0.1-0.9 -0.1-0.3-0.2-0.6-0.5-0.9 -0.3-0.3-0.7-0.5-1.2-0.7 -0.5-0.2-1.3-0.3-2.2-0.3h-8.3c0.9-0.5 2-1.2 3.3-2 1.3-0.8 2.8-1.7 4.3-2.7V27c0.6-0.4 1.2-0.8 1.8-1.2 0.6-0.4 1.1-0.8 1.5-1.2 0.4-0.4 0.8-0.8 1-1.3 0.2-0.4 0.3-0.9 0.3-1.4v-1.3h-19.5v0.4c0 0.3 0.1 0.7 0.2 1 0.1 0.3 0.3 0.6 0.6 0.8 0.3 0.2 0.7 0.4 1.2 0.5 0.5 0.1 1.1 0.2 1.8 0.2h8.4c-0.3 0.2-0.6 0.4-1 0.6 -0.3 0.2-0.7 0.5-1.2 0.8 -0.5 0.3-1 0.6-1.7 1 -0.6 0.4-1.4 0.8-2.2 1.4 -0.6 0.4-1.3 0.9-2 1.3 -0.7 0.5-1.4 0.9-2 1.4 -0.6 0.5-1.1 1-1.5 1.5 -0.4 0.5-0.6 0.9-0.6 1.4v1.6h19.5V34.3z"/><path class="st1" d="M231.1 34.3c0.5-0.1 1-0.3 1.4-0.6 0.4-0.3 0.7-0.6 0.9-1 0.2-0.4 0.3-0.9 0.3-1.5v-2.2h4.7 4.7v5.4h4.7V20.7h-9.3 -5.1c-0.6 0-1.1 0.1-1.6 0.2 -0.5 0.1-1 0.3-1.3 0.6 -0.4 0.2-0.7 0.6-0.9 0.9 -0.2 0.4-0.3 0.8-0.3 1.4v10.8h0.3C230 34.5 230.6 34.4 231.1 34.3zM233.8 23.6h4.7 4.7v2.6h-4.7 -4.7V23.6z"/><path class="st1" d="M182.1 33.7c0.4 0.3 0.8 0.5 1.3 0.6 0.5 0.1 1 0.2 1.6 0.2h10.2c0.6 0 1.1-0.1 1.7-0.2 0.5-0.1 1-0.3 1.3-0.5 0.4-0.2 0.7-0.5 0.9-0.9 0.2-0.4 0.3-0.8 0.3-1.3h-13.9v-2.6h8.8v-2.9h-8.8v-2.6h13.9c0-0.9-0.4-1.7-1.1-2.2 -0.8-0.5-1.8-0.8-3.1-0.8H185c-0.5 0-1.1 0.1-1.6 0.2 -0.5 0.1-0.9 0.3-1.3 0.6 -0.4 0.2-0.7 0.5-0.9 0.9 -0.2 0.4-0.3 0.7-0.3 1.2v8.1c0 0.4 0.1 0.8 0.3 1.2C181.4 33.1 181.7 33.4 182.1 33.7z"/><path class="st1" d="M83 34.5h1.8c1.7 0 2.9-0.3 3.5-0.9 0.6-0.6 0.9-1.6 0.9-2.9V19.9h4.3c0.4 0 0.9 0 1.5-0.1 0.6 0 1.1-0.1 1.6-0.3 0.5-0.2 1-0.5 1.3-0.9 0.4-0.4 0.6-1 0.6-1.8v-0.8H77.8c-1.4 0-2.4 0.2-3.2 0.7 -0.7 0.5-1.1 1.3-1.1 2.6v0.5H83V34.5z"/><path class="st1" d="M174.4 34.5c0.6 0 1.1-0.1 1.6-0.2 0.5-0.1 1-0.3 1.3-0.5 0.4-0.2 0.7-0.5 0.9-0.9 0.2-0.4 0.3-0.8 0.3-1.3v-8.1c0-0.9-0.4-1.7-1.1-2.2 -0.7-0.5-1.8-0.8-3.1-0.8h-5 -9.3v13.8h9.3H174.4zM164.8 23.6h4.6 4.6v8.1h-4.6 -4.6V23.6z"/><path class="st1" d="M105.3 29.1h9.3v5.4h4.6V20.7h-4.6v5.5h-9.3v-5.5h-0.5c-0.6 0-1.1 0.1-1.6 0.2 -0.5 0.1-0.9 0.3-1.3 0.6 -0.4 0.2-0.7 0.5-0.9 0.9 -0.2 0.3-0.3 0.7-0.3 1.1v11h4.6V29.1z"/><path class="st1" d="M122.7 33.7c0.4 0.3 0.8 0.5 1.3 0.6 0.5 0.1 1 0.2 1.6 0.2h9.1c0.6 0 1.1-0.1 1.6-0.2 0.5-0.1 0.9-0.3 1.3-0.6 0.4-0.3 0.7-0.6 0.9-0.9 0.2-0.3 0.4-0.7 0.4-1.2v-11h-4.6v11h-8.2v-8.6c0-0.9-0.4-1.5-1.2-1.9 -0.8-0.4-1.8-0.5-3-0.5h-0.5v11c0 0.4 0.1 0.8 0.3 1.2C122 33.1 122.3 33.4 122.7 33.7z"/><path class="st1" d="M145.8 26.6l1.8 1.7 4.9 4.6c0.3 0.3 0.7 0.6 1.1 0.8 0.4 0.2 0.8 0.3 1.2 0.4 0.4 0.1 0.8 0.2 1.1 0.2 0.4 0 0.7 0 0.9 0h0.9V20.7h-0.4c-1.3 0-2.3 0.2-3.1 0.7 -0.8 0.4-1.2 1.2-1.2 2.1v5c-0.2-0.2-0.5-0.4-0.8-0.7 -0.3-0.3-0.5-0.5-0.7-0.7 -0.2-0.2-0.3-0.3-0.3-0.3l-4.9-4.6c-0.3-0.3-0.7-0.6-1.1-0.8 -0.4-0.2-0.8-0.3-1.2-0.4 -0.4-0.1-0.8-0.2-1.1-0.2 -0.4 0-0.7 0-0.9 0h-1v13.8h4.6V26.6z"/><polygon class="st1" points="291.3 38.7 195.8 40.2 215 36.8 81.9 38.8 185.6 40.2 163.7 44.4 "/></svg>
